<svg xmlns="http://www.w3.org/2000/svg" viewBox="0 0 30 30" style="fill: currentColor; color: rgb(79 70 229);"><path d="M6.5292969 2.515625 A 1 1 0 0 0 5.8085938 2.8085938 A 1 1 0 0 0 5.8085938 4.2226562 A 1 1 0 0 0 7.2226562 4.2226562 A 1 1 0 0 0 7.2226562 2.8085938 A 1 1 0 0 0 6.5292969 2.515625 z M 23.5 2.515625 A 1 1 0 0 0 22.777344 2.8085938 A 1 1 0 0 0 22.777344 4.2226562 A 1 1 0 0 0 24.191406 4.2226562 A 1 1 0 0 0 24.191406 2.8085938 A 1 1 0 0 0 23.5 2.515625 z M 15 3C10.029 3 6 7.029 6 12C6 17 10 19 12 23L18 23C20 19 24 17 24 12C24 7.029 19.971 3 15 3 z M 15 6L15 11L19 11L15 18L15 13L11 13L15 6 z M 3 11 A 1 1 0 0 0 2 12 A 1 1 0 0 0 3 13 A 1 1 0 0 0 4 12 A 1 1 0 0 0 3 11 z M 27 11 A 1 1 0 0 0 26 12 A 1 1 0 0 0 27 13 A 1 1 0 0 0 28 12 A 1 1 0 0 0 27 11 z M 6.5292969 19.484375 A 1 1 0 0 0 5.8066406 19.777344 A 1 1 0 0 0 5.8066406 21.191406 A 1 1 0 0 0 7.2226562 21.191406 A 1 1 0 0 0 7.2226562 19.777344 A 1 1 0 0 0 6.5292969 19.484375 z M 23.498047 19.486328 A 1 1 0 0 0 22.777344 19.777344 A 1 1 0 0 0 22.777344 21.193359 A 1 1 0 0 0 24.191406 21.193359 A 1 1 0 0 0 24.191406 19.777344 A 1 1 0 0 0 23.498047 19.486328 z M 12 25L12 26C12 27.105 12.895 28 14 28 A 1 1 0 0 0 15 29 A 1 1 0 0 0 16 28C17.105 28 18 27.105 18 26L18 25L12 25 z"/></svg>